<mxfile host="app.diagrams.net" agent="Mozilla/5.0 (X11; Linux x86_64; rv:135.0) Gecko/20100101 Firefox/135.0" version="26.0.16">
  <diagram name="Page-1" id="VIUbG8LsNWzXNESJ_t7Y">
    <mxGraphModel dx="1428" dy="800" grid="1" gridSize="10" guides="1" tooltips="1" connect="1" arrows="1" fold="1" page="1" pageScale="1" pageWidth="850" pageHeight="1100" math="0" shadow="0">
      <root>
        <mxCell id="0" />
        <mxCell id="1" parent="0" />
        <mxCell id="CuX4p57Rn3S2Z4nWh4yC-1" value="Meta Cinema" style="shape=umlFrame;whiteSpace=wrap;html=1;pointerEvents=0;recursiveResize=0;container=1;collapsible=0;width=160;" parent="1" vertex="1">
          <mxGeometry x="235" y="80" width="395" height="590" as="geometry" />
        </mxCell>
        <mxCell id="CuX4p57Rn3S2Z4nWh4yC-4" value="&lt;div&gt;Login&lt;/div&gt;" style="ellipse;html=1;whiteSpace=wrap;" parent="CuX4p57Rn3S2Z4nWh4yC-1" vertex="1">
          <mxGeometry x="30" y="210" width="80" height="50" as="geometry" />
        </mxCell>
        <mxCell id="CuX4p57Rn3S2Z4nWh4yC-13" style="edgeStyle=orthogonalEdgeStyle;rounded=0;orthogonalLoop=1;jettySize=auto;html=1;dashed=1;" parent="CuX4p57Rn3S2Z4nWh4yC-1" source="CuX4p57Rn3S2Z4nWh4yC-10" target="CuX4p57Rn3S2Z4nWh4yC-4" edge="1">
          <mxGeometry relative="1" as="geometry" />
        </mxCell>
        <mxCell id="CuX4p57Rn3S2Z4nWh4yC-14" value="&lt;div&gt;&amp;lt;&amp;lt;Include&amp;gt;&amp;gt;&lt;/div&gt;" style="edgeLabel;html=1;align=center;verticalAlign=middle;resizable=0;points=[];" parent="CuX4p57Rn3S2Z4nWh4yC-13" vertex="1" connectable="0">
          <mxGeometry x="-0.0087" relative="1" as="geometry">
            <mxPoint as="offset" />
          </mxGeometry>
        </mxCell>
        <mxCell id="CuX4p57Rn3S2Z4nWh4yC-10" value="&lt;div&gt;Save Films &lt;br&gt;&lt;/div&gt;&lt;div&gt;to Favorites&lt;/div&gt;" style="ellipse;html=1;whiteSpace=wrap;" parent="CuX4p57Rn3S2Z4nWh4yC-1" vertex="1">
          <mxGeometry x="110" y="120" width="80" height="50" as="geometry" />
        </mxCell>
        <mxCell id="CuX4p57Rn3S2Z4nWh4yC-22" style="edgeStyle=orthogonalEdgeStyle;rounded=0;orthogonalLoop=1;jettySize=auto;html=1;entryX=0.5;entryY=1;entryDx=0;entryDy=0;dashed=1;" parent="CuX4p57Rn3S2Z4nWh4yC-1" source="CuX4p57Rn3S2Z4nWh4yC-15" target="CuX4p57Rn3S2Z4nWh4yC-10" edge="1">
          <mxGeometry relative="1" as="geometry" />
        </mxCell>
        <mxCell id="CuX4p57Rn3S2Z4nWh4yC-23" value="&amp;lt;&amp;lt;Extend&amp;gt;&amp;gt;" style="edgeLabel;html=1;align=center;verticalAlign=middle;resizable=0;points=[];" parent="CuX4p57Rn3S2Z4nWh4yC-22" vertex="1" connectable="0">
          <mxGeometry x="-0.0111" relative="1" as="geometry">
            <mxPoint as="offset" />
          </mxGeometry>
        </mxCell>
        <mxCell id="CuX4p57Rn3S2Z4nWh4yC-15" value="&lt;div&gt;Get Recommended&lt;/div&gt;&lt;div&gt;Film&lt;/div&gt;" style="ellipse;html=1;whiteSpace=wrap;" parent="CuX4p57Rn3S2Z4nWh4yC-1" vertex="1">
          <mxGeometry x="70" y="300" width="130" height="50" as="geometry" />
        </mxCell>
        <mxCell id="CuX4p57Rn3S2Z4nWh4yC-17" value="&lt;div&gt;Rate Films&lt;/div&gt;" style="ellipse;html=1;whiteSpace=wrap;" parent="CuX4p57Rn3S2Z4nWh4yC-1" vertex="1">
          <mxGeometry x="30" y="510" width="100" height="60" as="geometry" />
        </mxCell>
        <mxCell id="CuX4p57Rn3S2Z4nWh4yC-20" style="edgeStyle=orthogonalEdgeStyle;rounded=0;orthogonalLoop=1;jettySize=auto;html=1;entryX=0.4;entryY=1.06;entryDx=0;entryDy=0;entryPerimeter=0;dashed=1;" parent="CuX4p57Rn3S2Z4nWh4yC-1" source="CuX4p57Rn3S2Z4nWh4yC-15" target="CuX4p57Rn3S2Z4nWh4yC-4" edge="1">
          <mxGeometry relative="1" as="geometry" />
        </mxCell>
        <mxCell id="CuX4p57Rn3S2Z4nWh4yC-21" value="&amp;lt;&amp;lt;Include&amp;gt;&amp;gt;" style="edgeLabel;html=1;align=center;verticalAlign=middle;resizable=0;points=[];" parent="CuX4p57Rn3S2Z4nWh4yC-20" vertex="1" connectable="0">
          <mxGeometry x="0.0222" y="3" relative="1" as="geometry">
            <mxPoint as="offset" />
          </mxGeometry>
        </mxCell>
        <mxCell id="CuX4p57Rn3S2Z4nWh4yC-29" style="edgeStyle=orthogonalEdgeStyle;rounded=0;orthogonalLoop=1;jettySize=auto;html=1;entryX=0.5;entryY=1;entryDx=0;entryDy=0;dashed=1;" parent="CuX4p57Rn3S2Z4nWh4yC-1" source="CuX4p57Rn3S2Z4nWh4yC-27" target="CuX4p57Rn3S2Z4nWh4yC-15" edge="1">
          <mxGeometry relative="1" as="geometry" />
        </mxCell>
        <mxCell id="CuX4p57Rn3S2Z4nWh4yC-30" value="&amp;lt;&amp;lt;Extend&amp;gt;&amp;gt;" style="edgeLabel;html=1;align=center;verticalAlign=middle;resizable=0;points=[];" parent="CuX4p57Rn3S2Z4nWh4yC-29" vertex="1" connectable="0">
          <mxGeometry x="-0.0213" relative="1" as="geometry">
            <mxPoint x="1" as="offset" />
          </mxGeometry>
        </mxCell>
        <mxCell id="CuX4p57Rn3S2Z4nWh4yC-27" value="&lt;div&gt;Group on &lt;br&gt;&lt;/div&gt;&lt;div&gt;a couch&lt;/div&gt;" style="ellipse;html=1;whiteSpace=wrap;" parent="CuX4p57Rn3S2Z4nWh4yC-1" vertex="1">
          <mxGeometry x="35" y="420" width="105" height="60" as="geometry" />
        </mxCell>
        <mxCell id="CuX4p57Rn3S2Z4nWh4yC-33" value="&lt;div&gt;Add new Films&lt;/div&gt;&lt;div&gt;Globally&lt;/div&gt;" style="ellipse;html=1;whiteSpace=wrap;" parent="CuX4p57Rn3S2Z4nWh4yC-1" vertex="1">
          <mxGeometry x="245" y="122.5" width="95" height="45" as="geometry" />
        </mxCell>
        <mxCell id="CuX4p57Rn3S2Z4nWh4yC-38" style="edgeStyle=orthogonalEdgeStyle;rounded=0;orthogonalLoop=1;jettySize=auto;html=1;endArrow=block;endFill=0;" parent="CuX4p57Rn3S2Z4nWh4yC-1" source="CuX4p57Rn3S2Z4nWh4yC-36" target="CuX4p57Rn3S2Z4nWh4yC-10" edge="1">
          <mxGeometry relative="1" as="geometry" />
        </mxCell>
        <mxCell id="CuX4p57Rn3S2Z4nWh4yC-36" value="&lt;div&gt;Save Films&lt;/div&gt;&lt;div&gt;Locally&lt;/div&gt;" style="ellipse;html=1;whiteSpace=wrap;" parent="CuX4p57Rn3S2Z4nWh4yC-1" vertex="1">
          <mxGeometry x="30" y="50" width="80" height="40" as="geometry" />
        </mxCell>
        <mxCell id="o-TL6UviGVQKd9HEW2mv-2" value="&lt;div&gt;Delete new Films&lt;/div&gt;&lt;div&gt;Globally&lt;/div&gt;" style="ellipse;html=1;whiteSpace=wrap;" vertex="1" parent="CuX4p57Rn3S2Z4nWh4yC-1">
          <mxGeometry x="245" y="50" width="95" height="45" as="geometry" />
        </mxCell>
        <mxCell id="o-TL6UviGVQKd9HEW2mv-3" value="&lt;div&gt;Update new Films&lt;/div&gt;&lt;div&gt;Globally&lt;/div&gt;" style="ellipse;html=1;whiteSpace=wrap;" vertex="1" parent="CuX4p57Rn3S2Z4nWh4yC-1">
          <mxGeometry x="245" y="190" width="95" height="45" as="geometry" />
        </mxCell>
        <mxCell id="CuX4p57Rn3S2Z4nWh4yC-2" value="&lt;div&gt;User&lt;/div&gt;&lt;div&gt;&lt;br&gt;&lt;/div&gt;" style="shape=umlActor;verticalLabelPosition=bottom;verticalAlign=top;html=1;" parent="1" vertex="1">
          <mxGeometry x="80" y="300" width="40" height="80" as="geometry" />
        </mxCell>
        <mxCell id="CuX4p57Rn3S2Z4nWh4yC-35" style="edgeStyle=orthogonalEdgeStyle;rounded=0;orthogonalLoop=1;jettySize=auto;html=1;endArrow=none;startFill=0;" parent="1" source="CuX4p57Rn3S2Z4nWh4yC-3" target="CuX4p57Rn3S2Z4nWh4yC-33" edge="1">
          <mxGeometry relative="1" as="geometry" />
        </mxCell>
        <mxCell id="o-TL6UviGVQKd9HEW2mv-4" style="edgeStyle=orthogonalEdgeStyle;rounded=0;orthogonalLoop=1;jettySize=auto;html=1;entryX=1;entryY=0.5;entryDx=0;entryDy=0;endArrow=none;startFill=0;" edge="1" parent="1" source="CuX4p57Rn3S2Z4nWh4yC-3" target="o-TL6UviGVQKd9HEW2mv-2">
          <mxGeometry relative="1" as="geometry" />
        </mxCell>
        <mxCell id="o-TL6UviGVQKd9HEW2mv-6" style="edgeStyle=orthogonalEdgeStyle;rounded=0;orthogonalLoop=1;jettySize=auto;html=1;entryX=1;entryY=0.5;entryDx=0;entryDy=0;endArrow=none;startFill=0;" edge="1" parent="1" source="CuX4p57Rn3S2Z4nWh4yC-3" target="o-TL6UviGVQKd9HEW2mv-3">
          <mxGeometry relative="1" as="geometry" />
        </mxCell>
        <mxCell id="CuX4p57Rn3S2Z4nWh4yC-3" value="&lt;div&gt;Administrator&lt;/div&gt;&lt;div&gt;&lt;br&gt;&lt;/div&gt;&lt;div&gt;&lt;br&gt;&lt;/div&gt;" style="shape=umlActor;verticalLabelPosition=bottom;verticalAlign=top;html=1;" parent="1" vertex="1">
          <mxGeometry x="750" y="185" width="40" height="80" as="geometry" />
        </mxCell>
        <mxCell id="CuX4p57Rn3S2Z4nWh4yC-7" style="edgeStyle=orthogonalEdgeStyle;rounded=0;orthogonalLoop=1;jettySize=auto;html=1;strokeColor=default;endArrow=none;startFill=0;" parent="1" source="CuX4p57Rn3S2Z4nWh4yC-4" target="CuX4p57Rn3S2Z4nWh4yC-2" edge="1">
          <mxGeometry relative="1" as="geometry" />
        </mxCell>
        <mxCell id="CuX4p57Rn3S2Z4nWh4yC-11" style="edgeStyle=orthogonalEdgeStyle;rounded=0;orthogonalLoop=1;jettySize=auto;html=1;endArrow=none;startFill=0;" parent="1" source="CuX4p57Rn3S2Z4nWh4yC-10" target="CuX4p57Rn3S2Z4nWh4yC-2" edge="1">
          <mxGeometry relative="1" as="geometry" />
        </mxCell>
        <mxCell id="CuX4p57Rn3S2Z4nWh4yC-16" style="edgeStyle=orthogonalEdgeStyle;rounded=0;orthogonalLoop=1;jettySize=auto;html=1;endArrow=none;startFill=0;" parent="1" source="CuX4p57Rn3S2Z4nWh4yC-15" target="CuX4p57Rn3S2Z4nWh4yC-2" edge="1">
          <mxGeometry relative="1" as="geometry" />
        </mxCell>
        <mxCell id="CuX4p57Rn3S2Z4nWh4yC-28" style="edgeStyle=orthogonalEdgeStyle;rounded=0;orthogonalLoop=1;jettySize=auto;html=1;endArrow=none;startFill=0;" parent="1" source="CuX4p57Rn3S2Z4nWh4yC-27" target="CuX4p57Rn3S2Z4nWh4yC-2" edge="1">
          <mxGeometry relative="1" as="geometry" />
        </mxCell>
        <mxCell id="CuX4p57Rn3S2Z4nWh4yC-37" style="edgeStyle=orthogonalEdgeStyle;rounded=0;orthogonalLoop=1;jettySize=auto;html=1;endArrow=none;startFill=0;" parent="1" source="CuX4p57Rn3S2Z4nWh4yC-36" target="CuX4p57Rn3S2Z4nWh4yC-2" edge="1">
          <mxGeometry relative="1" as="geometry" />
        </mxCell>
        <mxCell id="o-TL6UviGVQKd9HEW2mv-1" style="edgeStyle=orthogonalEdgeStyle;rounded=0;orthogonalLoop=1;jettySize=auto;html=1;entryX=0.5;entryY=0.75;entryDx=0;entryDy=0;entryPerimeter=0;endArrow=none;startFill=0;" edge="1" parent="1" source="CuX4p57Rn3S2Z4nWh4yC-17" target="CuX4p57Rn3S2Z4nWh4yC-2">
          <mxGeometry relative="1" as="geometry" />
        </mxCell>
      </root>
    </mxGraphModel>
  </diagram>
</mxfile>
